<?xml version="1.0" standalone="no"?><svg xmlns="http://www.w3.org/2000/svg" viewBox="0 0 1440 320"><path fill="#5bc0de" fill-opacity="1" d="M0,192L16,202.7C32,213,64,235,96,240C128,245,160,235,192,202.7C224,171,256,117,288,90.7C320,64,352,64,384,74.7C416,85,448,107,480,122.7C512,139,544,149,576,149.3C608,149,640,139,672,133.3C704,128,736,128,768,154.7C800,181,832,235,864,213.3C896,192,928,96,960,101.3C992,107,1024,213,1056,218.7C1088,224,1120,128,1152,90.7C1184,53,1216,75,1248,85.3C1280,96,1312,96,1344,112C1376,128,1408,160,1424,176L1440,192L1440,0L1424,0C1408,0,1376,0,1344,0C1312,0,1280,0,1248,0C1216,0,1184,0,1152,0C1120,0,1088,0,1056,0C1024,0,992,0,960,0C928,0,896,0,864,0C832,0,800,0,768,0C736,0,704,0,672,0C640,0,608,0,576,0C544,0,512,0,480,0C448,0,416,0,384,0C352,0,320,0,288,0C256,0,224,0,192,0C160,0,128,0,96,0C64,0,32,0,16,0L0,0Z"></path></svg>